<mxfile host="app.diagrams.net" agent="Mozilla/5.0 (Windows NT 10.0; Win64; x64) AppleWebKit/537.36 (KHTML, like Gecko) Chrome/135.0.0.0 Safari/537.36" version="26.2.14">
  <diagram name="Page-1" id="rhsc-qh1pszq7NTg1bcD">
    <mxGraphModel dx="1442" dy="1379" grid="0" gridSize="10" guides="1" tooltips="1" connect="1" arrows="1" fold="1" page="0" pageScale="1" pageWidth="850" pageHeight="1100" math="0" shadow="0">
      <root>
        <mxCell id="0" />
        <mxCell id="1" parent="0" />
        <mxCell id="Dn5VS5hVoH6_ir9Mhc69-1" value="3D Gluing machine" style="ellipse;whiteSpace=wrap;html=1;" vertex="1" parent="1">
          <mxGeometry x="199" y="-317" width="120" height="80" as="geometry" />
        </mxCell>
        <mxCell id="Dn5VS5hVoH6_ir9Mhc69-2" value="Phone Case" style="ellipse;whiteSpace=wrap;html=1;" vertex="1" parent="1">
          <mxGeometry x="197" y="-456" width="120" height="80" as="geometry" />
        </mxCell>
        <mxCell id="Dn5VS5hVoH6_ir9Mhc69-3" value="Phone Factory" style="ellipse;whiteSpace=wrap;html=1;" vertex="1" parent="1">
          <mxGeometry x="359" y="-412" width="120" height="80" as="geometry" />
        </mxCell>
        <mxCell id="Dn5VS5hVoH6_ir9Mhc69-4" value="Motor" style="ellipse;whiteSpace=wrap;html=1;" vertex="1" parent="1">
          <mxGeometry x="-10" y="-351" width="120" height="80" as="geometry" />
        </mxCell>
        <mxCell id="Dn5VS5hVoH6_ir9Mhc69-5" value="Syringe" style="ellipse;whiteSpace=wrap;html=1;" vertex="1" parent="1">
          <mxGeometry x="2" y="-210" width="120" height="80" as="geometry" />
        </mxCell>
        <mxCell id="Dn5VS5hVoH6_ir9Mhc69-6" value="Pipes" style="ellipse;whiteSpace=wrap;html=1;" vertex="1" parent="1">
          <mxGeometry x="199" y="-162" width="120" height="80" as="geometry" />
        </mxCell>
        <mxCell id="Dn5VS5hVoH6_ir9Mhc69-7" value="Glue Delivery control" style="ellipse;whiteSpace=wrap;html=1;" vertex="1" parent="1">
          <mxGeometry x="366" y="-250" width="120" height="80" as="geometry" />
        </mxCell>
        <mxCell id="Dn5VS5hVoH6_ir9Mhc69-8" value="" style="endArrow=none;html=1;rounded=0;fontSize=12;startSize=8;endSize=8;curved=1;exitX=1;exitY=0.5;exitDx=0;exitDy=0;entryX=0.022;entryY=0.418;entryDx=0;entryDy=0;entryPerimeter=0;" edge="1" parent="1" source="Dn5VS5hVoH6_ir9Mhc69-4" target="Dn5VS5hVoH6_ir9Mhc69-1">
          <mxGeometry width="50" height="50" relative="1" as="geometry">
            <mxPoint x="207" y="-312" as="sourcePoint" />
            <mxPoint x="257" y="-362" as="targetPoint" />
          </mxGeometry>
        </mxCell>
        <mxCell id="Dn5VS5hVoH6_ir9Mhc69-10" value="" style="endArrow=none;html=1;rounded=0;fontSize=12;startSize=8;endSize=8;curved=1;exitX=0.773;exitY=0.925;exitDx=0;exitDy=0;entryX=0.022;entryY=0.658;entryDx=0;entryDy=0;entryPerimeter=0;exitPerimeter=0;" edge="1" parent="1" source="Dn5VS5hVoH6_ir9Mhc69-4" target="Dn5VS5hVoH6_ir9Mhc69-1">
          <mxGeometry width="50" height="50" relative="1" as="geometry">
            <mxPoint x="158" y="-298" as="sourcePoint" />
            <mxPoint x="212" y="-274" as="targetPoint" />
          </mxGeometry>
        </mxCell>
        <mxCell id="Dn5VS5hVoH6_ir9Mhc69-11" value="" style="endArrow=none;html=1;rounded=0;fontSize=12;startSize=8;endSize=8;curved=1;exitX=0.97;exitY=0.32;exitDx=0;exitDy=0;entryX=0;entryY=1;entryDx=0;entryDy=0;exitPerimeter=0;" edge="1" parent="1" source="Dn5VS5hVoH6_ir9Mhc69-5" target="Dn5VS5hVoH6_ir9Mhc69-1">
          <mxGeometry width="50" height="50" relative="1" as="geometry">
            <mxPoint x="93" y="-267" as="sourcePoint" />
            <mxPoint x="212" y="-254" as="targetPoint" />
          </mxGeometry>
        </mxCell>
        <mxCell id="Dn5VS5hVoH6_ir9Mhc69-12" value="" style="endArrow=none;html=1;rounded=0;fontSize=12;startSize=8;endSize=8;curved=1;exitX=0.5;exitY=0;exitDx=0;exitDy=0;entryX=0.5;entryY=1;entryDx=0;entryDy=0;" edge="1" parent="1" source="Dn5VS5hVoH6_ir9Mhc69-6" target="Dn5VS5hVoH6_ir9Mhc69-1">
          <mxGeometry width="50" height="50" relative="1" as="geometry">
            <mxPoint x="128" y="-174" as="sourcePoint" />
            <mxPoint x="227" y="-239" as="targetPoint" />
          </mxGeometry>
        </mxCell>
        <mxCell id="Dn5VS5hVoH6_ir9Mhc69-13" value="" style="endArrow=none;html=1;rounded=0;fontSize=12;startSize=8;endSize=8;curved=1;exitX=0;exitY=0.5;exitDx=0;exitDy=0;entryX=1;entryY=1;entryDx=0;entryDy=0;" edge="1" parent="1" source="Dn5VS5hVoH6_ir9Mhc69-7" target="Dn5VS5hVoH6_ir9Mhc69-1">
          <mxGeometry width="50" height="50" relative="1" as="geometry">
            <mxPoint x="269" y="-152" as="sourcePoint" />
            <mxPoint x="269" y="-227" as="targetPoint" />
          </mxGeometry>
        </mxCell>
        <mxCell id="Dn5VS5hVoH6_ir9Mhc69-16" value="Fc1" style="text;html=1;align=center;verticalAlign=middle;whiteSpace=wrap;rounded=0;" vertex="1" parent="1">
          <mxGeometry x="131" y="-332" width="60" height="30" as="geometry" />
        </mxCell>
        <mxCell id="Dn5VS5hVoH6_ir9Mhc69-17" value="" style="endArrow=none;html=1;rounded=0;fontSize=12;startSize=8;endSize=8;curved=1;entryX=0;entryY=1;entryDx=0;entryDy=0;exitX=0.425;exitY=0.965;exitDx=0;exitDy=0;exitPerimeter=0;" edge="1" parent="1" source="Dn5VS5hVoH6_ir9Mhc69-2" target="Dn5VS5hVoH6_ir9Mhc69-3">
          <mxGeometry width="50" height="50" relative="1" as="geometry">
            <mxPoint x="207" y="-312" as="sourcePoint" />
            <mxPoint x="257" y="-362" as="targetPoint" />
            <Array as="points">
              <mxPoint x="234" y="-236" />
            </Array>
          </mxGeometry>
        </mxCell>
        <mxCell id="Dn5VS5hVoH6_ir9Mhc69-18" value="Fc2" style="text;html=1;align=center;verticalAlign=middle;whiteSpace=wrap;rounded=0;" vertex="1" parent="1">
          <mxGeometry x="107" y="-301" width="60" height="30" as="geometry" />
        </mxCell>
        <mxCell id="Dn5VS5hVoH6_ir9Mhc69-19" value="Fc3" style="text;html=1;align=center;verticalAlign=middle;whiteSpace=wrap;rounded=0;" vertex="1" parent="1">
          <mxGeometry x="118" y="-234" width="60" height="30" as="geometry" />
        </mxCell>
        <mxCell id="Dn5VS5hVoH6_ir9Mhc69-20" value="Fc4" style="text;html=1;align=center;verticalAlign=middle;whiteSpace=wrap;rounded=0;" vertex="1" parent="1">
          <mxGeometry x="203" y="-214" width="60" height="30" as="geometry" />
        </mxCell>
        <mxCell id="Dn5VS5hVoH6_ir9Mhc69-21" value="Fc5" style="text;html=1;align=center;verticalAlign=middle;whiteSpace=wrap;rounded=0;" vertex="1" parent="1">
          <mxGeometry x="311" y="-256" width="60" height="30" as="geometry" />
        </mxCell>
        <mxCell id="Dn5VS5hVoH6_ir9Mhc69-22" value="Fs1" style="text;html=1;align=center;verticalAlign=middle;whiteSpace=wrap;rounded=0;" vertex="1" parent="1">
          <mxGeometry x="293" y="-338" width="60" height="30" as="geometry" />
        </mxCell>
      </root>
    </mxGraphModel>
  </diagram>
</mxfile>
